<?xml version="1.0" encoding="UTF-8" standalone="no"?>
<!-- Created with Inkscape (http://www.inkscape.org/) -->

<svg
   width="715.76495"
   height="667.69891"
   viewBox="0 0 189.37948 176.662"
   version="1.1"
   id="svg5"
   sodipodi:docname="waydroid2.svg"
   inkscape:version="1.1 (c68e22c387, 2021-05-23)"
   xmlns:inkscape="http://www.inkscape.org/namespaces/inkscape"
   xmlns:sodipodi="http://sodipodi.sourceforge.net/DTD/sodipodi-0.dtd"
   xmlns="http://www.w3.org/2000/svg"
   xmlns:svg="http://www.w3.org/2000/svg">
  <sodipodi:namedview
     id="namedview7"
     pagecolor="#ffffff"
     bordercolor="#666666"
     borderopacity="1.0"
     inkscape:pageshadow="2"
     inkscape:pageopacity="0.0"
     inkscape:pagecheckerboard="0"
     inkscape:document-units="px"
     showgrid="false"
     inkscape:zoom="0.71944444"
     inkscape:cx="309.26641"
     inkscape:cy="397.52896"
     inkscape:window-width="1920"
     inkscape:window-height="1015"
     inkscape:window-x="0"
     inkscape:window-y="0"
     inkscape:window-maximized="1"
     inkscape:current-layer="layer1" />
  <defs
     id="defs2" />
  <g
     inkscape:label="Layer 1"
     inkscape:groupmode="layer"
     id="layer1"
     transform="translate(-63.599597,-46.636421)">
    <rect
       x="100.52065"
       y="81.332413"
       width="115.48775"
       height="115.48775"
       rx="57.743877"
       fill="#f9b02d"
       fill-opacity="0.90196"
       opacity="0.9"
       stroke-opacity="0.55027"
       stroke-width="5.98833"
       id="rect835"
       style="fill:#373737;fill-opacity:1;stroke:#000000;stroke-width:1.32292;stroke-miterlimit:4;stroke-dasharray:none;stroke-opacity:1"
       inkscape:export-filename="/var/home/edge/g401.png"
       inkscape:export-xdpi="505.20084"
       inkscape:export-ydpi="505.20084" />
    <path
       style="fill:#5fd35f;stroke:#112b00;stroke-width:1.32292;stroke-miterlimit:4;stroke-dasharray:none"
       d="m 156.73646,172.65166 v 0.16898 l 0.43666,0.42375 0.24908,5.3e-4 0.2496,-0.12661 -0.74827,-0.46664 z"
       id="path860"
       inkscape:export-filename="/var/home/edge/g401.png"
       inkscape:export-xdpi="505.20084"
       inkscape:export-ydpi="505.20084" />
    <path
       style="fill:#5fd35f;stroke:#112b00;stroke-width:1.32292;stroke-miterlimit:4;stroke-dasharray:none"
       d="m 157.42324,168.71805 -1.87121,0.46251 v 0.29662 l 0.2496,0.1695 1.8712,-0.63252 v -0.29611 z"
       id="path858"
       inkscape:export-filename="/var/home/edge/g401.png"
       inkscape:export-xdpi="505.20084"
       inkscape:export-ydpi="505.20084" />
    <path
       style="fill:#5fd35f;stroke:#112b00;stroke-width:1.32292;stroke-miterlimit:4;stroke-dasharray:none"
       d="m 165.59535,155.78189 c -1.24739,0.13946 -1.8712,0.3358 -1.87121,0.58963 v 0.1695 l 0.68627,0.001 1.18494,-0.63304 z"
       id="path856"
       inkscape:export-filename="/var/home/edge/g401.png"
       inkscape:export-xdpi="505.20084"
       inkscape:export-ydpi="505.20084" />
    <path
       style="fill:#5fd35f;stroke:#112b00;stroke-width:1.32292;stroke-miterlimit:4;stroke-dasharray:none"
       d="m 174.45166,154.27035 -0.4992,0.29559 v 0.16899 l 0.49868,5.2e-4 0.18707,-0.16898 5.3e-4,-0.12661 z"
       id="path854"
       inkscape:export-filename="/var/home/edge/g401.png"
       inkscape:export-xdpi="505.20084"
       inkscape:export-ydpi="505.20084" />
    <path
       style="fill:#5fd35f;stroke:#112b00;stroke-width:1.32292;stroke-miterlimit:4;stroke-dasharray:none"
       d="m 168.83908,152.31699 c -0.6237,0.14025 -0.93589,0.28068 -0.93586,0.42168 l 0.49919,0.46612 c 0.74833,0.001 1.20571,-0.15348 1.37201,-0.46354 z"
       id="path852"
       inkscape:export-filename="/var/home/edge/g401.png"
       inkscape:export-xdpi="505.20084"
       inkscape:export-ydpi="505.20084" />
    <path
       style="fill:#5fd35f;stroke:#112b00;stroke-width:1.32292;stroke-miterlimit:4;stroke-dasharray:none"
       d="m 172.76855,150.20652 -0.43666,0.29559 v 0.16898 l 0.2496,5.3e-4 0.43614,-0.33796 5.3e-4,-0.12713 z"
       id="path850"
       inkscape:export-filename="/var/home/edge/g401.png"
       inkscape:export-xdpi="505.20084"
       inkscape:export-ydpi="505.20084" />
    <path
       style="fill:#5fd35f;stroke:#112b00;stroke-width:1.32292;stroke-miterlimit:4;stroke-dasharray:none"
       d="m 164.16184,150.02617 -0.93534,0.16795 v 0.12712 l 0.49868,0.339 h 0.2496 l 0.43666,-0.33796 v -0.12661 z"
       id="path848"
       inkscape:export-filename="/var/home/edge/g401.png"
       inkscape:export-xdpi="505.20084"
       inkscape:export-ydpi="505.20084" />
    <path
       style="fill:#5fd35f;stroke:#112b00;stroke-width:1.32292;stroke-miterlimit:4;stroke-dasharray:none"
       d="m 152.31296,148.53014 -3.74241,0.58756 c -1.1e-4,0.31026 -0.16606,0.46502 -0.49868,0.46457 v 0.2961 c 1.9543,-0.36409 3.36785,-0.7709 4.24109,-1.22111 z"
       id="path846"
       inkscape:export-filename="/var/home/edge/g401.png"
       inkscape:export-xdpi="505.20084"
       inkscape:export-ydpi="505.20084" />
    <path
       style="fill:#5fd35f;stroke:#112b00;stroke-width:1.32292;stroke-miterlimit:4;stroke-dasharray:none"
       d="m 159.04846,147.0155 -1.18494,0.29507 -0.18707,-5.2e-4 -0.24908,-0.12713 -1.37253,0.42116 v 0.29611 c 1.99558,-0.25138 2.99356,-0.48951 2.99362,-0.7152 z"
       id="path844"
       inkscape:export-filename="/var/home/edge/g401.png"
       inkscape:export-xdpi="505.20084"
       inkscape:export-ydpi="505.20084" />
    <path
       style="fill:#5fd35f;stroke:#112b00;stroke-width:1.32292;stroke-miterlimit:4;stroke-dasharray:none"
       d="m 162.54127,145.37012 -0.93586,0.29508 v 0.2961 l 0.68626,0.17002 v -0.1695 l 0.2496,-0.16847 c 0.45734,5.3e-4 0.68567,-0.0981 0.68575,-0.29559 v -0.1266 z"
       id="path842"
       inkscape:export-filename="/var/home/edge/g401.png"
       inkscape:export-xdpi="505.20084"
       inkscape:export-ydpi="505.20084" />
    <path
       style="fill:#5fd35f;stroke:#112b00;stroke-width:1.32292;stroke-miterlimit:4;stroke-dasharray:none"
       d="m 186.30313,141.76207 -2.80655,0.7581 c -0.8732,-0.001 -1.55972,2.05693 -2.0593,6.1743 -1.49728,2.00064 -3.13949,4.81907 -4.92787,8.4553 l -4.61522,-0.006 -2.36988,0.12402 v 0.33848 l 1.18494,0.002 0.93534,-0.16795 3.92896,0.30075 v 0.1695 c -1.12301,2.19858 -1.80938,3.29783 -2.05879,3.29748 -1.45603,4.11626 -2.62024,6.17323 -3.49333,6.17223 l -0.74827,-5.3e-4 c -1.03934,-0.53719 -2.20322,-1.63889 -3.49178,-3.30471 2e-5,-0.39486 -0.22848,-0.74796 -0.68574,-1.05885 l -3.49178,-4.40438 c -0.70649,-1.86239 -1.64207,-3.25967 -2.80603,-4.19199 -0.37412,-0.62096 -0.9976,-0.93228 -1.87069,-0.93328 l -0.43666,-5.3e-4 c -1.37188,-0.002 -2.70244,0.54653 -3.99149,1.64486 l 0.2496,0.46561 c -0.58232,1.12745 -1.51794,2.43778 -2.80707,3.93102 -1.9963,3.29745 -3.30633,4.94592 -3.92999,4.94492 l -0.49919,-5.3e-4 -0.93535,-0.42426 c -1.57943,-2.42768 -2.65991,-5.99678 -3.24114,-10.70788 l -0.43615,-5.2e-4 v -0.29611 h 0.18707 c 0.29115,-0.59193 0.85253,-1.05682 1.68413,-1.39423 v -0.12661 l -0.2496,-0.1695 -0.24959,0.16899 -0.24908,-0.17002 -1.12293,0.16795 -0.49868,-5.3e-4 c -0.29101,-2.6e-4 -0.74858,-0.64942 -1.37201,-1.94768 V 149.233 l 1.62161,0.002 v -0.2961 l -2.12029,-0.003 c -0.54025,-1.55198 -2.32781,-3.45861 -5.36246,-5.71903 l 0.74828,0.12816 c -0.57462,-0.43004 -0.74828,-0.42427 -0.74828,-0.42427 -1.954,-0.002 -3.32628,0.84197 -4.11654,2.53318 l -5.3e-4,2.70785 1.80764,6.34896 -5.3e-4,1.988 0.24908,2.53886 c -0.74838,-0.001 -1.12238,0.0976 -1.12241,0.29507 v 0.16898 l 1.12241,-0.16795 0.2496,5.3e-4 -0.001,4.40025 c 0.5814,2.93418 1.66215,5.54431 3.24167,7.83105 0.166,1.60796 0.47799,2.41224 0.93534,2.41277 0.74809,1.6087 1.28847,2.41338 1.62109,2.41381 2.11997,1.61052 4.75966,2.77016 7.91941,3.47937 1.12252,0.001 2.05838,-0.80142 2.80707,-2.40812 0.95683,-3.46805 1.72616,-5.58247 2.30838,-6.34328 0.54045,0.31097 1.47611,0.52361 2.80655,0.6382 v -0.16898 c 5e-5,-0.28205 -0.85238,-0.57947 -2.55695,-0.89194 0.45758,-1.35325 1.08154,-2.50846 1.87172,-3.46645 0.12491,-1.6357 1.60147,-3.9047 4.42919,-6.8063 l 1.12241,0.17053 c 0.16604,1.32586 0.47762,2.42668 0.93482,3.30161 1.70426,1.97667 2.55621,3.83903 2.55592,5.58777 -1.1e-4,0.67691 1.33014,2.94904 3.99046,6.81664 0.66473,2.53938 1.51651,4.03545 2.55591,4.48809 l 0.4992,5.3e-4 c 1.3721,0.002 2.99351,-0.99707 4.86481,-2.99723 1.8298,-2.25404 3.30603,-3.50757 4.42868,-3.75998 -2e-5,-0.19731 -0.39506,-0.29665 -1.18495,-0.29765 v -0.16898 c 0.62362,7.9e-4 0.93526,-0.0976 0.93535,-0.29508 v -0.12712 l -0.24908,-0.1695 2.61948,-0.58911 c 5e-5,-0.50768 -0.31175,-0.76174 -0.93535,-0.76274 v -0.16899 l 1.87069,0.003 v -0.29611 c -0.9563,-0.001 -1.57981,-0.29818 -1.87069,-0.8909 l 0.43667,5.3e-4 v -0.59273 l -0.24908,-0.1695 c 1.41354,0.002 2.12017,-0.15223 2.12028,-0.4625 v -0.12713 l -0.43666,-5.3e-4 v -0.16898 c 0.49889,5.3e-4 0.8733,-0.29529 1.12292,-0.88728 -1.37204,-0.2556 -2.05783,-0.50992 -2.05775,-0.76378 l 1.80919,-3.00189 c 2e-4,-1.52309 0.47843,-3.18651 1.43506,-4.99039 1.08122,-1.74733 1.8506,-3.65022 2.30838,-5.70869 1.20607,-2.39579 2.45339,-3.86079 3.74241,-4.39508 l 5.3e-4,-0.12713 h -0.2496 l -0.93586,0.42168 -0.43615,-5.3e-4 1.18598,-5.71024 c -0.16622,-1.21304 -0.95635,-1.82011 -2.36989,-1.82212 z"
       id="path840"
       inkscape:export-filename="/var/home/edge/g401.png"
       inkscape:export-xdpi="505.20084"
       inkscape:export-ydpi="505.20084" />
    <path
       style="fill:#5fd35f;stroke:#112b00;stroke-width:1.32292;stroke-miterlimit:4;stroke-dasharray:none"
       d="m 122.90197,66.651805 c -0.39182,0.01397 -0.78594,0.124738 -1.1467,0.341067 -1.15478,0.707625 -1.52098,2.219259 -0.81856,3.379636 l 9.72086,16.465145 -1.97301,1.110528 c -7.0958,4.251394 -13.12192,10.083211 -17.61287,17.044429 -5.83962,8.77073 -9.4874,18.82353 -10.63502,29.30828 h 115.49425 c -1.35282,-10.16534 -4.32145,-20.10194 -10.44226,-28.53572 -4.42213,-7.083551 -10.39662,-13.061654 -17.4687,-17.479026 l -2.40606,-1.351854 9.72086,-16.513204 c 0.71134,-1.147583 0.36789,-2.656216 -0.76947,-3.380155 -1.15171,-0.734288 -2.68102,-0.361381 -3.36878,0.821137 l -9.96115,16.899228 c -7.25427,-2.963942 -15.02646,-4.441362 -22.85855,-4.345472 -7.97291,-0.09965 -15.88733,1.376855 -23.29161,4.345472 L 125.076,67.862068 c -0.46077,-0.804297 -1.31202,-1.240991 -2.17403,-1.210263 z"
       id="path837"
       inkscape:export-filename="/var/home/edge/g401.png"
       inkscape:export-xdpi="505.20084"
       inkscape:export-ydpi="505.20084" />
    <path
       id="path2899"
       style="fill:#217821;fill-opacity:1;stroke:#0b280b;stroke-width:1.02749;stroke-miterlimit:4;stroke-dasharray:none;stroke-opacity:1"
       d="m 220.43442,79.604105 c -7.3677,-0.504307 -18.22647,2.792364 -31.11633,9.446853 l 5.16054,3.280975 c 6.9976,-2.809033 12.90492,-4.108451 17.32112,-3.810091 16.97997,1.176011 8.34191,25.266248 -19.29371,53.807278 -27.63614,28.54144 -63.80499,50.72556 -80.78511,49.54944 -10.56779,-0.74085 -12.240665,-8.91264 -3.28251,-24.3591 l -3.19982,-5.75306 c -16.676107,23.28679 -16.846165,38.00927 -2.15234,39.02991 19.91022,1.37912 62.32046,-24.63312 94.72561,-58.09976 32.40482,-33.4665 42.53329,-61.713963 22.62255,-63.092445 z"
       sodipodi:nodetypes="ccccccccccc"
       inkscape:export-filename="/var/home/edge/g401.png"
       inkscape:export-xdpi="505.20084"
       inkscape:export-ydpi="505.20084" />
    <path
       style="fill:#4d4d4d;stroke:#112b00;stroke-width:1.32292;stroke-miterlimit:4;stroke-dasharray:none"
       d="m 184.75697,102.49575 c 2.65773,4e-5 4.8121,2.16202 4.81211,4.82868 10e-6,2.66666 -2.15437,4.82812 -4.81211,4.82816 -2.65774,-3e-5 -4.81212,-2.1615 -4.81211,-4.82816 1e-5,-2.66666 2.15438,-4.82865 4.81211,-4.82868 z"
       id="path835"
       inkscape:export-filename="/var/home/edge/g401.png"
       inkscape:export-xdpi="505.20084"
       inkscape:export-ydpi="505.20084" />
    <path
       style="fill:#4d4d4d;stroke:#112b00;stroke-width:1.32292;stroke-miterlimit:4;stroke-dasharray:none"
       d="m 131.8217,102.49575 c 2.6578,-6e-5 4.8121,2.16195 4.81211,4.82868 10e-6,2.66673 -2.1543,4.82822 -4.81211,4.82816 -2.65774,-3e-5 -4.81212,-2.1615 -4.81211,-4.82816 1e-5,-2.66666 2.15438,-4.82865 4.81211,-4.82868 z"
       id="path833"
       inkscape:export-filename="/var/home/edge/g401.png"
       inkscape:export-xdpi="505.20084"
       inkscape:export-ydpi="505.20084" />
  </g>
</svg>
